<svg id="Слой_1" data-name="Слой 1" xmlns="http://www.w3.org/2000/svg" viewBox="0 0 1190.55 1190.55">
  <defs>
    <style>
      .cls-1 {
        fill: #fff;
        stroke: #231300;
        stroke-miterlimit: 10;
        stroke-width: 5px;
      }
    </style>
  </defs>
  <g>
    <line class="cls-1" x1="324.79" y1="423.66" x2="324.79" y2="564.24"/>
    <line class="cls-1" x1="334.05" y1="418.59" x2="334.05" y2="566.88"/>
    <line class="cls-1" x1="343.31" y1="424.53" x2="343.31" y2="564.37"/>
    <line class="cls-1" x1="361.84" y1="426.88" x2="361.84" y2="564.24"/>
    <line class="cls-1" x1="371.1" y1="576.09" x2="371.1" y2="579.32"/>
    <line class="cls-1" x1="371.1" y1="418.59" x2="371.1" y2="567.2"/>
    <line class="cls-1" x1="380.36" y1="576.09" x2="380.36" y2="586.51"/>
    <line class="cls-1" x1="380.36" y1="551.96" x2="380.36" y2="567.2"/>
    <line class="cls-1" x1="380.36" y1="418.59" x2="380.36" y2="485.73"/>
    <line class="cls-1" x1="389.63" y1="576.09" x2="389.63" y2="590.59"/>
    <line class="cls-1" x1="389.63" y1="552.12" x2="389.63" y2="567.2"/>
    <line class="cls-1" x1="389.63" y1="371.97" x2="389.63" y2="476.47"/>
    <line class="cls-1" x1="398.89" y1="576.09" x2="398.89" y2="695.23"/>
    <line class="cls-1" x1="398.89" y1="552.12" x2="398.89" y2="567.2"/>
    <line class="cls-1" x1="398.89" y1="343.68" x2="398.89" y2="467.2"/>
    <line class="cls-1" x1="408.15" y1="645.66" x2="408.15" y2="735.64"/>
    <line class="cls-1" x1="408.15" y1="576.09" x2="408.15" y2="598.11"/>
    <line class="cls-1" x1="408.15" y1="551.81" x2="408.15" y2="567.2"/>
    <line class="cls-1" x1="408.15" y1="324.4" x2="408.15" y2="457.94"/>
    <line class="cls-1" x1="417.42" y1="736.65" x2="417.42" y2="788.99"/>
    <line class="cls-1" x1="417.42" y1="669.52" x2="417.42" y2="702.37"/>
    <line class="cls-1" x1="417.42" y1="576.09" x2="417.42" y2="596.93"/>
    <line class="cls-1" x1="417.42" y1="551.81" x2="417.42" y2="567.2"/>
    <line class="cls-1" x1="417.42" y1="388.54" x2="417.42" y2="448.68"/>
    <line class="cls-1" x1="417.42" y1="307.88" x2="417.42" y2="361.43"/>
    <line class="cls-1" x1="426.68" y1="791.77" x2="426.68" y2="818.36"/>
    <line class="cls-1" x1="426.68" y1="703.58" x2="426.68" y2="778.31"/>
    <line class="cls-1" x1="426.68" y1="682.72" x2="426.68" y2="686.27"/>
    <line class="cls-1" x1="426.68" y1="576.09" x2="426.68" y2="598.11"/>
    <line class="cls-1" x1="426.68" y1="552.42" x2="426.68" y2="567.2"/>
    <line class="cls-1" x1="426.68" y1="388.54" x2="426.68" y2="440.19"/>
    <line class="cls-1" x1="426.68" y1="296.62" x2="426.68" y2="338.97"/>
    <line class="cls-1" x1="435.94" y1="835.28" x2="435.94" y2="841.22"/>
    <line class="cls-1" x1="435.94" y1="686.27" x2="435.94" y2="730.74"/>
    <line class="cls-1" x1="435.94" y1="576.09" x2="435.94" y2="648.29"/>
    <line class="cls-1" x1="435.94" y1="552.73" x2="435.94" y2="568.21"/>
    <line class="cls-1" x1="435.94" y1="387.56" x2="435.94" y2="438.04"/>
    <line class="cls-1" x1="435.94" y1="285.84" x2="435.94" y2="325.37"/>
    <line class="cls-1" x1="445.21" y1="576.09" x2="445.21" y2="709.3"/>
    <line class="cls-1" x1="445.21" y1="553.03" x2="445.21" y2="568.21"/>
    <line class="cls-1" x1="445.21" y1="388.54" x2="445.21" y2="438.04"/>
    <line class="cls-1" x1="445.21" y1="276.46" x2="445.21" y2="314.57"/>
    <line class="cls-1" x1="454.47" y1="766.33" x2="454.47" y2="856.47"/>
    <line class="cls-1" x1="454.47" y1="576.09" x2="454.47" y2="694.02"/>
    <line class="cls-1" x1="454.47" y1="553.03" x2="454.47" y2="567.2"/>
    <line class="cls-1" x1="454.47" y1="388.54" x2="454.47" y2="438.04"/>
    <line class="cls-1" x1="454.47" y1="268.22" x2="454.47" y2="305.26"/>
    <line class="cls-1" x1="463.73" y1="738.47" x2="463.73" y2="905.37"/>
    <line class="cls-1" x1="463.73" y1="610.49" x2="463.73" y2="681.67"/>
    <line class="cls-1" x1="463.73" y1="576.09" x2="463.73" y2="600.07"/>
    <line class="cls-1" x1="463.73" y1="552.42" x2="463.73" y2="567.2"/>
    <line class="cls-1" x1="463.73" y1="388.54" x2="463.73" y2="438.04"/>
    <line class="cls-1" x1="463.73" y1="260.95" x2="463.73" y2="298.76"/>
    <line class="cls-1" x1="472.99" y1="814.25" x2="472.99" y2="861.69"/>
    <line class="cls-1" x1="472.99" y1="722.13" x2="472.99" y2="788.23"/>
    <line class="cls-1" x1="472.99" y1="626.49" x2="472.99" y2="670.1"/>
    <line class="cls-1" x1="472.99" y1="576.09" x2="472.99" y2="600.21"/>
    <line class="cls-1" x1="472.99" y1="552.27" x2="472.99" y2="567.2"/>
    <line class="cls-1" x1="472.99" y1="388.54" x2="472.99" y2="438.04"/>
    <line class="cls-1" x1="472.99" y1="254.53" x2="472.99" y2="294.71"/>
    <line class="cls-1" x1="482.26" y1="801.16" x2="482.26" y2="844.06"/>
    <line class="cls-1" x1="482.26" y1="710.63" x2="482.26" y2="763.64"/>
    <line class="cls-1" x1="482.26" y1="637.29" x2="482.26" y2="661.52"/>
    <line class="cls-1" x1="482.26" y1="576.09" x2="482.26" y2="600.22"/>
    <polyline class="cls-1" points="482.26 387.56 482.26 438.04 482.26 567.2"/>
    <line class="cls-1" x1="482.26" y1="248.84" x2="482.26" y2="290.6"/>
    <line class="cls-1" x1="491.52" y1="700.97" x2="491.52" y2="829.01"/>
    <line class="cls-1" x1="491.52" y1="635.18" x2="491.52" y2="655.01"/>
    <line class="cls-1" x1="491.52" y1="576.09" x2="491.52" y2="600.63"/>
    <line class="cls-1" x1="491.52" y1="388.54" x2="491.52" y2="567.2"/>
    <line class="cls-1" x1="491.52" y1="243.84" x2="491.52" y2="286.55"/>
    <line class="cls-1" x1="500.78" y1="692.62" x2="500.78" y2="816.12"/>
    <line class="cls-1" x1="500.78" y1="629.91" x2="500.78" y2="649.56"/>
    <line class="cls-1" x1="500.78" y1="576.09" x2="500.78" y2="600.1"/>
    <line class="cls-1" x1="500.78" y1="552.27" x2="500.78" y2="568.39"/>
    <line class="cls-1" x1="500.78" y1="388.54" x2="500.78" y2="439.38"/>
    <line class="cls-1" x1="500.78" y1="239.45" x2="500.78" y2="285.42"/>
    <line class="cls-1" x1="510.05" y1="685.36" x2="510.05" y2="803.73"/>
    <line class="cls-1" x1="510.05" y1="626.57" x2="510.05" y2="644.45"/>
    <line class="cls-1" x1="510.05" y1="576.09" x2="510.05" y2="600"/>
    <line class="cls-1" x1="510.05" y1="387.78" x2="510.05" y2="568.03"/>
    <line class="cls-1" x1="510.05" y1="235.64" x2="510.05" y2="284.77"/>
    <line class="cls-1" x1="519.31" y1="679.68" x2="519.31" y2="791.28"/>
    <line class="cls-1" x1="519.31" y1="627.39" x2="519.31" y2="638.62"/>
    <line class="cls-1" x1="519.31" y1="576.09" x2="519.31" y2="599.88"/>
    <line class="cls-1" x1="519.31" y1="231.44" x2="519.31" y2="567.2"/>
    <line class="cls-1" x1="528.57" y1="673.83" x2="528.57" y2="775.97"/>
    <line class="cls-1" x1="528.57" y1="576.09" x2="528.57" y2="599.74"/>
    <line class="cls-1" x1="528.57" y1="553.66" x2="528.57" y2="567.2"/>
    <line class="cls-1" x1="528.57" y1="229.62" x2="528.57" y2="441.72"/>
    <line class="cls-1" x1="537.83" y1="669.52" x2="537.83" y2="788.38"/>
    <polyline class="cls-1" points="537.83 576.09 537.83 598.27 537.83 599.58"/>
    <line class="cls-1" x1="537.83" y1="553.16" x2="537.83" y2="567.2"/>
    <line class="cls-1" x1="537.83" y1="405.86" x2="537.83" y2="442.12"/>
    <line class="cls-1" x1="537.83" y1="199.73" x2="537.83" y2="208.83"/>
    <line class="cls-1" x1="547.1" y1="715.08" x2="547.1" y2="775.14"/>
    <line class="cls-1" x1="547.1" y1="666.21" x2="547.1" y2="694.55"/>
    <line class="cls-1" x1="547.1" y1="624.32" x2="547.1" y2="631.64"/>
    <line class="cls-1" x1="547.1" y1="576.09" x2="547.1" y2="609.54"/>
    <line class="cls-1" x1="547.1" y1="552.91" x2="547.1" y2="567.2"/>
    <line class="cls-1" x1="547.1" y1="405.34" x2="547.1" y2="442.24"/>
    <line class="cls-1" x1="547.1" y1="188.46" x2="547.1" y2="199.2"/>
    <line class="cls-1" x1="556.36" y1="717.18" x2="556.36" y2="764.05"/>
    <line class="cls-1" x1="556.36" y1="663.88" x2="556.36" y2="691.97"/>
    <line class="cls-1" x1="556.36" y1="625.46" x2="556.36" y2="639.42"/>
    <line class="cls-1" x1="556.36" y1="572.46" x2="556.36" y2="599"/>
    <line class="cls-1" x1="556.36" y1="552.66" x2="556.36" y2="567.2"/>
    <line class="cls-1" x1="556.36" y1="405.34" x2="556.36" y2="441.87"/>
    <line class="cls-1" x1="556.36" y1="178.1" x2="556.36" y2="188.06"/>
    <line class="cls-1" x1="565.62" y1="716.83" x2="565.62" y2="759.59"/>
    <line class="cls-1" x1="565.62" y1="662.93" x2="565.62" y2="691.97"/>
    <line class="cls-1" x1="565.62" y1="631.89" x2="565.62" y2="647.13"/>
    <line class="cls-1" x1="565.62" y1="552.66" x2="565.62" y2="582.01"/>
    <line class="cls-1" x1="565.62" y1="405.51" x2="565.62" y2="442.24"/>
    <line class="cls-1" x1="565.62" y1="167.52" x2="565.62" y2="177.68"/>
    <line class="cls-1" x1="574.89" y1="716.65" x2="574.89" y2="757.22"/>
    <line class="cls-1" x1="574.89" y1="662.93" x2="574.89" y2="692.96"/>
    <line class="cls-1" x1="574.89" y1="636.36" x2="574.89" y2="650.41"/>
    <line class="cls-1" x1="574.89" y1="552.66" x2="574.89" y2="576.65"/>
    <line class="cls-1" x1="574.89" y1="163.14" x2="574.89" y2="441.62"/>
    <line class="cls-1" x1="584.15" y1="716.65" x2="584.15" y2="757.09"/>
    <line class="cls-1" x1="584.15" y1="662.93" x2="584.15" y2="693.26"/>
    <line class="cls-1" x1="584.15" y1="636.26" x2="584.15" y2="650.59"/>
    <line class="cls-1" x1="584.15" y1="552.41" x2="584.15" y2="576.52"/>
    <line class="cls-1" x1="584.15" y1="174.1" x2="584.15" y2="441.37"/>
    <line class="cls-1" x1="593.41" y1="716.71" x2="593.41" y2="758.95"/>
    <line class="cls-1" x1="593.41" y1="662.93" x2="593.41" y2="692.23"/>
    <line class="cls-1" x1="593.41" y1="632.87" x2="593.41" y2="647.73"/>
    <line class="cls-1" x1="593.41" y1="552.16" x2="593.41" y2="581.48"/>
    <line class="cls-1" x1="593.41" y1="185.06" x2="593.41" y2="441.24"/>
    <line class="cls-1" x1="602.67" y1="717.18" x2="602.67" y2="763.25"/>
    <line class="cls-1" x1="602.67" y1="663.56" x2="602.67" y2="691.97"/>
    <line class="cls-1" x1="602.67" y1="626.09" x2="602.67" y2="640.5"/>
    <polyline class="cls-1" points="602.67 552.03 602.67 567.2 602.67 570 602.67 571.92 602.67 597.97"/>
    <line class="cls-1" x1="602.67" y1="194.93" x2="602.67" y2="441.37"/>
    <line class="cls-1" x1="611.94" y1="716.03" x2="611.94" y2="773.45"/>
    <line class="cls-1" x1="611.94" y1="665.88" x2="611.94" y2="693.54"/>
    <line class="cls-1" x1="611.94" y1="623.67" x2="611.94" y2="632.64"/>
    <line class="cls-1" x1="611.94" y1="576.09" x2="611.94" y2="610.1"/>
    <line class="cls-1" x1="611.94" y1="551.91" x2="611.94" y2="567.2"/>
    <line class="cls-1" x1="611.94" y1="206.97" x2="611.94" y2="441.24"/>
    <line class="cls-1" x1="621.2" y1="669.06" x2="621.2" y2="787.24"/>
    <line class="cls-1" x1="621.2" y1="576.09" x2="621.2" y2="599.57"/>
    <line class="cls-1" x1="621.2" y1="552.16" x2="621.2" y2="567.2"/>
    <line class="cls-1" x1="621.2" y1="227.28" x2="621.2" y2="441.49"/>
    <line class="cls-1" x1="630.46" y1="672.75" x2="630.46" y2="773.04"/>
    <line class="cls-1" x1="630.46" y1="576.09" x2="630.46" y2="599.73"/>
    <line class="cls-1" x1="630.46" y1="551.78" x2="630.46" y2="567.2"/>
    <line class="cls-1" x1="630.46" y1="229.52" x2="630.46" y2="441.99"/>
    <line class="cls-1" x1="639.73" y1="678.41" x2="639.73" y2="789.71"/>
    <line class="cls-1" x1="639.73" y1="627.74" x2="639.73" y2="638.94"/>
    <line class="cls-1" x1="639.73" y1="576.09" x2="639.73" y2="599.57"/>
    <line class="cls-1" x1="639.73" y1="552.28" x2="639.73" y2="567.2"/>
    <line class="cls-1" x1="639.73" y1="388.54" x2="639.73" y2="441.74"/>
    <line class="cls-1" x1="639.73" y1="232.24" x2="639.73" y2="282.76"/>
    <line class="cls-1" x1="648.99" y1="684.55" x2="648.99" y2="802.23"/>
    <line class="cls-1" x1="648.99" y1="626.09" x2="648.99" y2="644.14"/>
    <line class="cls-1" x1="648.99" y1="576.09" x2="648.99" y2="599.57"/>
    <line class="cls-1" x1="648.99" y1="552.28" x2="648.99" y2="567.2"/>
    <line class="cls-1" x1="648.99" y1="388.54" x2="648.99" y2="441.99"/>
    <line class="cls-1" x1="648.99" y1="235.47" x2="648.99" y2="283.34"/>
    <line class="cls-1" x1="658.25" y1="691.67" x2="658.25" y2="814.33"/>
    <line class="cls-1" x1="658.25" y1="629.69" x2="658.25" y2="649.24"/>
    <line class="cls-1" x1="658.25" y1="576.09" x2="658.25" y2="599.73"/>
    <line class="cls-1" x1="658.25" y1="552.41" x2="658.25" y2="567.2"/>
    <line class="cls-1" x1="658.25" y1="387.77" x2="658.25" y2="441.99"/>
    <line class="cls-1" x1="658.25" y1="239.25" x2="658.25" y2="284.73"/>
    <line class="cls-1" x1="667.51" y1="699.89" x2="667.51" y2="827.46"/>
    <line class="cls-1" x1="667.51" y1="634.75" x2="667.51" y2="654.66"/>
    <line class="cls-1" x1="667.51" y1="576.09" x2="667.51" y2="600.17"/>
    <line class="cls-1" x1="667.51" y1="553.53" x2="667.51" y2="567.2"/>
    <line class="cls-1" x1="667.51" y1="388.54" x2="667.51" y2="441.74"/>
    <line class="cls-1" x1="667.51" y1="243.6" x2="667.51" y2="286.98"/>
    <line class="cls-1" x1="676.78" y1="709.37" x2="676.78" y2="842.25"/>
    <line class="cls-1" x1="676.78" y1="637.13" x2="676.78" y2="661.06"/>
    <line class="cls-1" x1="676.78" y1="576.09" x2="676.78" y2="600.22"/>
    <line class="cls-1" x1="676.78" y1="553.66" x2="676.78" y2="567.2"/>
    <line class="cls-1" x1="676.78" y1="388.54" x2="676.78" y2="441.62"/>
    <line class="cls-1" x1="676.78" y1="248.56" x2="676.78" y2="290.16"/>
    <line class="cls-1" x1="686.04" y1="720.55" x2="686.04" y2="859.4"/>
    <line class="cls-1" x1="686.04" y1="627.33" x2="686.04" y2="669.51"/>
    <line class="cls-1" x1="686.04" y1="576.09" x2="686.04" y2="600.21"/>
    <line class="cls-1" x1="686.04" y1="553.41" x2="686.04" y2="567.2"/>
    <line class="cls-1" x1="686.04" y1="388.54" x2="686.04" y2="441.49"/>
    <line class="cls-1" x1="686.04" y1="254.2" x2="686.04" y2="294.36"/>
    <line class="cls-1" x1="695.3" y1="736.06" x2="695.3" y2="915.04"/>
    <line class="cls-1" x1="695.3" y1="611.57" x2="695.3" y2="680.13"/>
    <line class="cls-1" x1="695.3" y1="576.09" x2="695.3" y2="600.09"/>
    <line class="cls-1" x1="695.3" y1="552.28" x2="695.3" y2="567.2"/>
    <line class="cls-1" x1="695.3" y1="388.54" x2="695.3" y2="441.37"/>
    <line class="cls-1" x1="695.3" y1="260.58" x2="695.3" y2="299.72"/>
    <line class="cls-1" x1="704.57" y1="761.75" x2="704.57" y2="868.48"/>
    <line class="cls-1" x1="621.2" y1="815.28" x2="621.2" y2="841.22"/>
    <line class="cls-1" x1="630.46" y1="821.41" x2="630.46" y2="863.02"/>
    <line class="cls-1" x1="639.73" y1="828.54" x2="639.73" y2="876.57"/>
    <line class="cls-1" x1="648.99" y1="836.76" x2="648.99" y2="889.29"/>
    <line class="cls-1" x1="658.25" y1="861.69" x2="658.25" y2="921.25"/>
    <line class="cls-1" x1="667.51" y1="891.14" x2="667.51" y2="943.4"/>
    <line class="cls-1" x1="676.78" y1="918.63" x2="676.78" y2="964.33"/>
    <line class="cls-1" x1="556.36" y1="802.61" x2="556.36" y2="943.4"/>
    <line class="cls-1" x1="565.62" y1="790.46" x2="565.62" y2="969.49"/>
    <line class="cls-1" x1="574.89" y1="782.16" x2="574.89" y2="988.96"/>
    <line class="cls-1" x1="584.15" y1="781.84" x2="584.15" y2="988.96"/>
    <line class="cls-1" x1="593.41" y1="793.87" x2="593.41" y2="968.16"/>
    <line class="cls-1" x1="602.67" y1="805.01" x2="602.67" y2="939.45"/>
    <line class="cls-1" x1="540.23" y1="811.59" x2="540.23" y2="842.22"/>
    <line class="cls-1" x1="540.23" y1="885.56" x2="540.23" y2="916.18"/>
    <line class="cls-1" x1="621.2" y1="885.56" x2="621.2" y2="916.18"/>
    <line class="cls-1" x1="530.97" y1="817.73" x2="530.97" y2="876.57"/>
    <line class="cls-1" x1="530.97" y1="898.22" x2="530.97" y2="957.06"/>
    <line class="cls-1" x1="630.46" y1="899.97" x2="630.46" y2="958.81"/>
    <line class="cls-1" x1="521.71" y1="824.85" x2="521.71" y2="889.87"/>
    <line class="cls-1" x1="512.44" y1="833.07" x2="512.44" y2="908.83"/>
    <line class="cls-1" x1="503.18" y1="859.4" x2="503.18" y2="922.89"/>
    <line class="cls-1" x1="521.71" y1="916.7" x2="521.71" y2="980.19"/>
    <line class="cls-1" x1="639.73" y1="916.83" x2="639.73" y2="980.32"/>
    <line class="cls-1" x1="493.92" y1="889.29" x2="493.92" y2="943.4"/>
    <line class="cls-1" x1="484.65" y1="918.63" x2="484.65" y2="964.33"/>
    <line class="cls-1" x1="704.57" y1="576.09" x2="704.57" y2="692.74"/>
    <line class="cls-1" x1="704.57" y1="543.4" x2="704.57" y2="567.2"/>
    <line class="cls-1" x1="704.57" y1="388.54" x2="704.57" y2="441.62"/>
    <line class="cls-1" x1="704.57" y1="267.79" x2="704.57" y2="306.46"/>
    <line class="cls-1" x1="713.83" y1="671.17" x2="713.83" y2="708.78"/>
    <line class="cls-1" x1="713.83" y1="576.09" x2="713.83" y2="663.18"/>
    <line class="cls-1" x1="713.83" y1="533.52" x2="713.83" y2="567.2"/>
    <line class="cls-1" x1="713.83" y1="388.54" x2="713.83" y2="441.62"/>
    <line class="cls-1" x1="713.83" y1="275.96" x2="713.83" y2="314.34"/>
    <line class="cls-1" x1="723.09" y1="837.54" x2="723.09" y2="843.26"/>
    <line class="cls-1" x1="723.09" y1="685.31" x2="723.09" y2="729.08"/>
    <line class="cls-1" x1="723.09" y1="576.09" x2="723.09" y2="647.54"/>
    <line class="cls-1" x1="723.09" y1="524.9" x2="723.09" y2="567.2"/>
    <line class="cls-1" x1="723.09" y1="388.54" x2="723.09" y2="441.74"/>
    <line class="cls-1" x1="723.09" y1="284.73" x2="723.09" y2="325.91"/>
    <line class="cls-1" x1="732.35" y1="793.87" x2="732.35" y2="818.51"/>
    <polyline class="cls-1" points="732.36 702.3 732.36 767.86 732.36 769.25"/>
    <line class="cls-1" x1="732.35" y1="576.09" x2="732.35" y2="598.11"/>
    <line class="cls-1" x1="732.35" y1="515.27" x2="732.35" y2="567.2"/>
    <line class="cls-1" x1="732.35" y1="388.54" x2="732.35" y2="441.74"/>
    <line class="cls-1" x1="732.35" y1="295.95" x2="732.35" y2="340.99"/>
    <line class="cls-1" x1="741.62" y1="671.5" x2="741.62" y2="790.86"/>
    <line class="cls-1" x1="741.62" y1="576.09" x2="741.62" y2="598.11"/>
    <line class="cls-1" x1="741.62" y1="554.59" x2="741.62" y2="567.2"/>
    <line class="cls-1" x1="741.62" y1="506.14" x2="741.62" y2="544.65"/>
    <line class="cls-1" x1="741.62" y1="388.54" x2="741.62" y2="441.87"/>
    <line class="cls-1" x1="741.62" y1="308.43" x2="741.62" y2="367.96"/>
    <line class="cls-1" x1="750.88" y1="649.94" x2="750.88" y2="739.33"/>
    <line class="cls-1" x1="750.88" y1="576.09" x2="750.88" y2="598.11"/>
    <line class="cls-1" x1="750.88" y1="554.52" x2="750.88" y2="567.2"/>
    <line class="cls-1" x1="750.88" y1="496.28" x2="750.88" y2="534.62"/>
    <line class="cls-1" x1="750.88" y1="323.4" x2="750.88" y2="441.62"/>
    <line class="cls-1" x1="760.14" y1="576.09" x2="760.14" y2="708.78"/>
    <line class="cls-1" x1="760.14" y1="554.59" x2="760.14" y2="567.2"/>
    <line class="cls-1" x1="760.14" y1="487.63" x2="760.14" y2="524.9"/>
    <line class="cls-1" x1="760.14" y1="341.25" x2="760.14" y2="442.24"/>
    <line class="cls-1" x1="769.41" y1="576.09" x2="769.41" y2="591.05"/>
    <line class="cls-1" x1="769.41" y1="554.52" x2="769.41" y2="567.2"/>
    <line class="cls-1" x1="769.41" y1="479.13" x2="769.41" y2="515.27"/>
    <line class="cls-1" x1="769.41" y1="369.72" x2="769.41" y2="441.99"/>
    <line class="cls-1" x1="778.67" y1="576.09" x2="778.67" y2="585.5"/>
    <line class="cls-1" x1="778.67" y1="554.59" x2="778.67" y2="567.2"/>
    <line class="cls-1" x1="778.67" y1="469.38" x2="778.67" y2="504.55"/>
    <line class="cls-1" x1="778.67" y1="421.28" x2="778.67" y2="441.87"/>
    <line class="cls-1" x1="787.93" y1="576.09" x2="787.93" y2="581.02"/>
    <line class="cls-1" x1="787.93" y1="421.28" x2="787.93" y2="566.41"/>
    <line class="cls-1" x1="797.2" y1="425.82" x2="797.2" y2="562.09"/>
    <line class="cls-1" x1="815.72" y1="427.08" x2="815.72" y2="562.39"/>
    <line class="cls-1" x1="824.98" y1="421.28" x2="824.98" y2="567.2"/>
    <line class="cls-1" x1="834.25" y1="423" x2="834.25" y2="566.41"/>
    <line class="cls-1" x1="843.51" y1="435.45" x2="843.51" y2="556.51"/>
  </g>
</svg>
